<svg width="512" height="512" viewBox="0 0 512 512" fill="none" xmlns="http://www.w3.org/2000/svg">
<rect width="512" height="512" rx="120" fill="#2563eb"/>
<path d="M256 96C247.163 96 240 103.163 240 112V130.062C188.75 136.213 160 168 160 216C160 272 208 288 256 296C296 302.667 312 312 312 336C312 360 292 376 256 376C212 376 192 352 184 328C181.333 320 172 316 164 320L148 328C140 332 138 340 142 348C156 388 192 423.8 240 429.938V448C240 456.837 247.163 464 256 464C264.837 464 272 456.837 272 448V429.938C323.25 423.787 352 392 352 344C352 288 304 272 256 264C216 257.333 200 248 200 224C200 200 220 184 256 184C296 184 312 208 318 228C320.667 236 330 240 338 236L354 228C362 224 364 216 360 208C346 168 310 132.2 262 126.062V112C262 103.163 254.837 96 246 96H256Z" fill="white"/>
</svg>
